<?xml version="1.0" encoding="utf-8"?>
<svg version="1.0" id="Layer_1" xmlns="http://www.w3.org/2000/svg" xmlns:xlink="http://www.w3.org/1999/xlink" x="0px" y="0px"
viewBox="0 0 1600 1200" enable-background="new 0 0 1600 1200" xml:space="preserve">
<g>
	<g>
		<rect fill="#B0F7FF" width="1600" height="1200"/>
		<path fill="#D1FAFF" d="M1600,78.5v111.3c-52.5-1.9-99.5-12.4-119.3-28.3c-18.2-14.6-64.4-24.3-116.1-24.3
			c-51.6,0-97.8,9.7-116.1,24.3c-22.5,18.1-79.4,30-143.1,30s-120.6-12-143-30c-15.4-12.4-51.1-21.3-94-23.6s-86.6,2.5-114.9,12.5
			c-38.7,13.7-97.3,20.6-156.3,18.5c-59-2.2-110.5-13.1-137.5-29.1c-20.6-12.3-64.3-19.3-109.3-17.6c-45,1.7-81.8,11.7-92.1,25.1
			c-21.7,28.3-103.2,48.7-199,49.8c-20.4,0.2-40.4-0.4-59.5-1.9V93.1c37.3-0.4,74.9,3,106.3,10.1c58.4,13.3,138.9,13.3,197.3,0
			c93.3-21.3,221.7-21.3,315,0c65.3,14.9,157.2,12.3,212.5-5.9c82.3-27.2,218.7-31.4,317.5-9.9c55.2,12.1,129.8,12.1,185,0
			c74.2-16.2,170.2-20.1,255.6-10.3C1592.9,77.6,1596.5,78,1600,78.5L1600,78.5z"/>
		<g>
			<path fill="#FFFFFF" d="M1600,687v353H0V741.2c24.8-38,62-66.1,105.5-78.4c59.8-16.9,123.8-1.8,170.8,40.5
				c35.7,32.1,83.1,46.1,129.6,38.3s87.3-36.6,111.6-78.8c44.4-77.1,124.8-123.5,210.9-121.9S893.3,592,935,670.7
				c20.6,38.9,57.4,65.6,99.5,72.2s84.8-7.5,115.5-38.3c80.4-80.6,193.6-114.7,302.7-91.2C1507.7,625.2,1558,650.8,1600,687
				L1600,687z"/>
			<path fill="#10A0B0" d="M1600,702v338H0V753.8c24.8-36.3,62-63.2,105.5-75c59.8-16.2,123.8-1.7,170.8,38.7
				c35.7,30.7,83.1,44.1,129.6,36.7c46.5-7.5,87.3-35.1,111.6-75.4c44.5-73.8,124.9-118.3,211-116.7S893.4,611,935.1,686.4
				c20.6,37.3,57.4,62.8,99.5,69.2s84.8-7.2,115.5-36.7c80.4-77.1,193.6-109.8,302.7-87.3C1507.7,642.8,1558,667.3,1600,702
				L1600,702z"/>
			<path fill="#028594" d="M1600,846.4V1040H0V876.1c24.8-20.8,62-36.2,105.5-43c59.8-9.3,123.8-1,170.8,22.2
				c35.7,17.6,83.1,25.3,129.6,21s87.3-20.1,111.6-43.2c44.4-42.3,124.8-67.8,210.9-66.9c86.1,0.9,164.9,28,206.6,71.2
				c20.6,21.3,57.4,36,99.5,39.6s84.8-4.1,115.5-21c80.4-44.2,193.6-62.9,302.7-50C1507.7,812.5,1558,826.5,1600,846.4L1600,846.4z"
				/>
		</g>
		<path fill="#FFFFFF" d="M1600,927.2V1040H0v-92.7C11.8,935.1,26,928,41.2,928c9.9,0,19.4,3,28,8.4c17-72.6,57.4-123.6,104.5-123.6
			c48.1,0,89.1,53.2,105.5,128.1c9.7-8.3,20.6-12.9,32-12.9c19.7,0,37.7,13.8,51.2,36.4c12.2-44,37.4-74.2,66.6-74.2
			c16.3,0,31.4,9.5,43.7,25.5c18.2-61.4,52.9-103,92.8-103c36,0,67.8,33.8,87,85.4c16.2-33.8,37.6-54.5,61.1-54.5
			c22.5,0,43.2,18.9,59.1,50.3c24.3-49.7,60.8-81.3,101.5-81.3c44.6,0,84,37.8,108,95.8c10.8-11.7,23.2-18.4,36.3-18.4
			c20.1,0,38.5,15.6,52.2,41.1c20.6-53.1,53.9-87.6,91.6-87.6c42.8,0,80.1,44.7,99.3,110.5c19.5-36.4,48.3-59.4,80.5-59.4
			c26.4,0,50.6,15.5,69.2,41.2c20-55.4,55.5-92.3,95.9-92.3C1545.7,843.8,1579.5,876.8,1600,927.2L1600,927.2z"/>
		<rect y="1040" fill="#663333" width="1600" height="160"/>
		<rect y="1040" fill="#401919" width="1600" height="20.6"/>
		<g>
			<path fill="#C0EB34" d="M1600,936.2V1040H0v-85.3C11.8,943.5,26,937,41.2,937c9.9,0,19.4,2.8,28,7.8
				C86.3,878,126.6,831,173.7,831c48.1,0,89.1,48.9,105.5,117.9c9.7-7.6,20.6-11.9,32-11.9c19.7,0,37.7,12.7,51.2,33.5
				c12.2-40.5,37.4-68.2,66.6-68.2c16.3,0,31.4,8.7,43.7,23.5c18.2-56.5,52.9-94.7,92.8-94.7c36,0,67.8,31.1,87,78.6
				c16.2-31.1,37.6-50.1,61.1-50.1c22.5,0,43.2,17.4,59.1,46.3c24.3-45.7,60.8-74.8,101.5-74.8c44.6,0,84,34.8,108,88.1
				c10.8-10.8,23.2-16.9,36.3-16.9c20.1,0,38.5,14.4,52.2,37.8c20.6-48.8,53.9-80.6,91.6-80.6c42.8,0,80.1,41.1,99.3,101.7
				c19.5-33.5,48.3-54.7,80.5-54.7c26.4,0,50.6,14.3,69.2,38c20-51,55.5-84.9,95.9-84.9C1545.7,859.5,1579.5,889.8,1600,936.2
				L1600,936.2z"/>
			<path fill="#A9D90D" d="M1600,974.9v65.1H0v-53.5c11.8-7,26-11.1,41.2-11.1c9.9,0,19.4,1.7,28,4.9c17-41.9,57.4-71.3,104.5-71.3
				c48.1,0,89.1,30.7,105.5,73.9c9.7-4.8,20.6-7.5,32-7.5c19.7,0,37.7,7.9,51.2,21c12.2-25.4,37.4-42.8,66.6-42.8
				c16.3,0,31.4,5.5,43.7,14.7c18.2-35.4,52.9-59.4,92.8-59.4c36,0,67.8,19.5,87,49.3c16.2-19.5,37.6-31.4,61.1-31.4
				c22.5,0,43.2,10.9,59.1,29c24.3-28.7,60.8-46.9,101.5-46.9c44.6,0,84,21.8,108,55.2c10.8-6.8,23.2-10.6,36.3-10.6
				c20.1,0,38.5,9,52.2,23.7c20.6-30.6,53.9-50.5,91.6-50.5c42.8,0,80.1,25.8,99.3,63.7c19.5-21,48.3-34.3,80.5-34.3
				c26.4,0,50.6,9,69.2,23.8c20-32,55.5-53.2,95.9-53.2C1545.7,926.8,1579.5,945.8,1600,974.9L1600,974.9z"/>
			<path fill="#50BA17" d="M68.6,1008.9c6.3,0,12.1,3.3,16.5,8.6c2.9-24.5,15.9-43,31.6-43c16.8,0,30.5,21.1,32,48.1
				c3.1-2.4,6.7-3.7,10.5-3.7c4.8,0,9.3,2.2,13,5.9c3.9-15.6,12.9-26.6,23.3-26.6c9.6,0,18,9.3,22.3,22.9
				c4.2-7.7,10.2-12.6,16.9-12.6c4.6,0,8.8,2.3,12.3,6.1c7.1-17.6,20.9-29.6,36.9-29.6c18.5,0,34.1,16.1,39.7,38.4
				c4.4-5.6,10.1-9,16.3-9c6.9,0,13.2,4.2,17.8,11.1c2.7-23.2,12.7-40.4,24.6-40.4c9,0,16.8,9.7,21.3,24.4
				c5.2-5.1,11.6-8.2,18.5-8.2c8.2,0,15.6,4.3,21.3,11.3c5.6-16.5,15.9-27.5,27.6-27.5c14,0,25.9,15.6,30.3,37.5
				c7.1-12.6,18.5-20.7,31.4-20.7c10.1,0,19.3,5,26.2,13.2c4.1-23.3,19.4-40.5,37.7-40.5c14.6,0,27.2,11,33.9,27.2
				c3.9-36.9,20.8-64.7,41.1-64.7c16.6,0,31,18.6,37.8,45.5c4.8-5.1,10.3-8,16.3-8c10.9,0,20.5,9.8,26.3,24.8
				c10.8-24.2,30.5-40.4,52.9-40.4c24.6,0,45.9,19.5,55.8,47.7c5.4-3.3,11.6-5.2,18.2-5.2c8.2,0,15.9,3,22.1,8
				c7.8-20.7,24.2-34.9,43.2-34.9c19.7,0,36.6,15.3,44,37.2c5.9-10,14.5-16.3,24.1-16.3c8.5,0,16.2,4.9,22,12.9
				c6.9-20.4,21.1-34.5,37.6-34.5c17.3,0,32.1,15.4,38.5,37.4c5.5-6.2,12.5-9.9,20.2-9.9c9.7,0,18.4,6,24.3,15.5
				c5.2-17.3,16.2-29.2,29-29.2c7,0,13.5,3.6,18.8,9.7c8.2-23,23.9-38.5,42-38.5s33.9,15.7,42.1,38.8c5.7-14.3,15.7-23.8,27.1-23.8
				c8.6,0,16.5,5.5,22.2,14.4c8.7-17.8,23-29.4,39.2-29.4c20.4,0,37.8,18.4,44.8,44.3c5.9-4.9,12.9-7.7,20.4-7.7
				c8.4,0,16.2,3.6,22.6,9.7c6.7-18.7,19.3-31.2,33.7-31.2c17.5,0,32.3,18.6,37.2,44.2c2.5-0.9,5.2-1.4,7.9-1.4
				c8.4,0,15.8,4.4,20.5,11.3c2.7-1.4,5.9-2.2,9.2-2.2c9.4,0,17.1,6.2,18.2,14.3H20.8c2.6-7.3,8.2-12.4,14.6-12.4
				c3.6,0,6.9,1.6,9.6,4.2C48.7,1018.4,57.9,1008.9,68.6,1008.9L68.6,1008.9z"/>
			<path fill="#479E18" d="M68.6,1028c6.3,0,12.1,1.3,16.5,3.3c2.9-9.4,15.9-16.6,31.6-16.6c16.8,0,30.5,8.1,32,18.5
				c3.1-0.9,6.7-1.4,10.5-1.4c4.8,0,9.3,0.8,13,2.3c3.9-6,12.9-10.2,23.3-10.2c9.6,0,18,3.6,22.3,8.8c4.2-3,10.2-4.9,16.9-4.9
				c4.6,0,8.8,0.9,12.3,2.4c7.1-6.8,20.9-11.4,36.9-11.4c18.5,0,34.1,6.2,39.7,14.8c4.4-2.2,10.1-3.5,16.3-3.5
				c6.9,0,13.2,1.6,17.8,4.3c2.7-8.9,12.7-15.6,24.6-15.6c9,0,16.8,3.8,21.3,9.4c5.2-2,11.6-3.1,18.5-3.1c8.2,0,15.6,1.6,21.3,4.3
				c5.6-6.4,15.9-10.6,27.6-10.6c14,0,25.9,6,30.3,14.4c7.1-4.8,18.5-8,31.4-8c10.1,0,19.3,1.9,26.2,5.1c4.1-9,19.4-15.6,37.7-15.6
				c14.6,0,27.2,4.2,33.9,10.5c3.9-14.2,20.8-24.9,41.1-24.9c16.6,0,31,7.2,37.8,17.5c4.8-2,10.3-3.1,16.3-3.1
				c10.9,0,20.5,3.8,26.3,9.6c10.8-9.3,30.5-15.6,52.9-15.6c24.6,0,45.9,7.5,55.8,18.4c5.4-1.3,11.6-2,18.2-2
				c8.2,0,15.9,1.1,22.1,3.1c7.8-8,24.2-13.4,43.2-13.4c19.7,0,36.6,5.9,44,14.3c5.9-3.8,14.5-6.3,24.1-6.3c8.5,0,16.2,1.9,22,5
				c6.9-7.9,21.1-13.3,37.6-13.3c17.3,0,32.1,5.9,38.5,14.4c5.5-2.4,12.5-3.8,20.2-3.8c9.7,0,18.4,2.3,24.3,6
				c5.2-6.7,16.2-11.2,29-11.2c7,0,13.5,1.4,18.8,3.7c8.2-8.8,23.9-14.8,42-14.8s33.9,6,42.1,14.9c5.7-5.5,15.7-9.2,27.1-9.2
				c8.6,0,16.5,2.1,22.2,5.5c8.7-6.8,23-11.3,39.2-11.3c20.4,0,37.8,7.1,44.8,17c5.9-1.9,12.9-3,20.4-3c8.4,0,16.2,1.4,22.6,3.7
				c6.7-7.2,19.3-12,33.7-12c17.5,0,32.3,7.2,37.2,17c2.5-0.4,5.2-0.5,7.9-0.5c8.4,0,15.8,1.7,20.5,4.3c2.7-0.5,5.9-0.8,9.2-0.8
				c9.4,0,17.1,2.4,18.2,5.5H20.8c2.6-2.8,8.2-4.8,14.6-4.8c3.6,0,6.9,0.6,9.6,1.6C48.7,1031.7,57.9,1028,68.6,1028L68.6,1028z"/>
		</g>
		<g>
			<g>
				<ellipse fill="#5E2D2D" cx="68" cy="1113.1" rx="31.8" ry="22"/>
				<ellipse fill="#8F5151" cx="65.9" cy="1110.2" rx="28.3" ry="19.5"/>
				<path fill="#A66464" d="M58.5,1094.5c8.7-2,15.7,0.4,15.7,5.4s-7,10.6-15.7,12.6s-15.7-0.4-15.7-5.4
					C42.8,1102.1,49.8,1096.5,58.5,1094.5z"/>
			</g>
			<g>
				<ellipse fill="#5E2D2D" cx="236.7" cy="1168.8" rx="31.8" ry="22"/>
				<ellipse fill="#8F5151" cx="234.7" cy="1165.8" rx="28.3" ry="19.5"/>
				<path fill="#A66464" d="M227.2,1150.1c8.7-2,15.7,0.4,15.7,5.4s-7,10.6-15.7,12.6s-15.7-0.4-15.7-5.4
					C211.6,1157.7,218.6,1152.1,227.2,1150.1z"/>
			</g>
			<g>
				<ellipse fill="#5E2D2D" cx="377.2" cy="1120.3" rx="31.8" ry="22"/>
				<ellipse fill="#8F5151" cx="375.2" cy="1117.3" rx="28.3" ry="19.5"/>
				<path fill="#A66464" d="M367.7,1101.6c8.7-2,15.7,0.4,15.7,5.4s-7,10.6-15.7,12.6s-15.7-0.4-15.7-5.4S359.1,1103.6,367.7,1101.6
					z"/>
			</g>
			<g>
				<ellipse fill="#5E2D2D" cx="710.7" cy="1098" rx="31.8" ry="22"/>
				<ellipse fill="#8F5151" cx="708.7" cy="1095.1" rx="28.3" ry="19.5"/>
				<path fill="#A66464" d="M701.2,1079.4c8.7-2,15.7,0.4,15.7,5.4s-7,10.6-15.7,12.6s-15.7-0.4-15.7-5.4
					C685.6,1087,692.6,1081.4,701.2,1079.4z"/>
			</g>
			<g>
				<ellipse fill="#5E2D2D" cx="574.6" cy="1157.8" rx="31.8" ry="22"/>
				<ellipse fill="#8F5151" cx="572.5" cy="1154.8" rx="28.3" ry="19.5"/>
				<path fill="#A66464" d="M565.1,1139.2c8.7-2,15.7,0.4,15.7,5.4s-7,10.6-15.7,12.6s-15.7-0.4-15.7-5.4
					C549.4,1146.8,556.4,1141.1,565.1,1139.2z"/>
			</g>
			<g>
				<ellipse fill="#5E2D2D" cx="953.3" cy="1157.8" rx="31.8" ry="22"/>
				<ellipse fill="#8F5151" cx="951.3" cy="1154.8" rx="28.3" ry="19.5"/>
				<path fill="#A66464" d="M943.8,1139.2c8.7-2,15.7,0.4,15.7,5.4s-7,10.6-15.7,12.6s-15.7-0.4-15.7-5.4
					C928.2,1146.8,935.2,1141.1,943.8,1139.2z"/>
			</g>
			<g>
				<ellipse fill="#5E2D2D" cx="1142.1" cy="1098" rx="31.8" ry="22"/>
				<ellipse fill="#8F5151" cx="1140" cy="1095.1" rx="28.3" ry="19.5"/>
				<path fill="#A66464" d="M1132.6,1079.4c8.7-2,15.7,0.4,15.7,5.4s-7,10.6-15.7,12.6s-15.7-0.4-15.7-5.4
					S1123.9,1081.4,1132.6,1079.4z"/>
			</g>
			<g>
				<ellipse fill="#5E2D2D" cx="1340.2" cy="1142.5" rx="31.8" ry="22"/>
				<ellipse fill="#8F5151" cx="1338.1" cy="1139.5" rx="28.3" ry="19.5"/>
				<path fill="#A66464" d="M1330.7,1123.8c8.7-2,15.7,0.4,15.7,5.4s-7,10.6-15.7,12.6s-15.7-0.4-15.7-5.4
					C1315,1131.5,1322.1,1125.8,1330.7,1123.8z"/>
			</g>
			<g>
				<ellipse fill="#5E2D2D" cx="1495.1" cy="1120.6" rx="63.5" ry="43.9"/>
				<ellipse fill="#8F5151" cx="1491" cy="1114.6" rx="56.5" ry="39.1"/>
				<path fill="#A66464" d="M1476.1,1083.2c17.3-4,31.4,0.9,31.4,10.8s-14,21.2-31.4,25.1c-17.3,4-31.4-0.9-31.4-10.8
					S1458.8,1087.2,1476.1,1083.2z"/>
			</g>
			<g>
				<ellipse fill="#5E2D2D" cx="1050" cy="1145.8" rx="49.1" ry="33.9"/>
				<ellipse fill="#8F5151" cx="1046.8" cy="1141.2" rx="43.7" ry="30.2"/>
				<path fill="#A66464" d="M1035.3,1117c13.4-3.1,24.2,0.7,24.2,8.3c0,7.7-10.8,16.4-24.2,19.4c-13.4,3.1-24.2-0.7-24.2-8.3
					S1022,1120.1,1035.3,1117z"/>
			</g>
			<g>
				<ellipse fill="#5E2D2D" cx="819.7" cy="1129.2" rx="61.4" ry="42.4"/>
				<ellipse fill="#8F5151" cx="815.7" cy="1123.4" rx="54.6" ry="37.8"/>
				<path fill="#A66464" d="M801.4,1093.1c16.7-3.8,30.3,0.8,30.3,10.4s-13.6,20.5-30.3,24.3s-30.3-0.8-30.3-10.4
					S784.6,1096.9,801.4,1093.1z"/>
			</g>
			<g>
				<ellipse fill="#5E2D2D" cx="481.5" cy="1115.1" rx="61.4" ry="42.4"/>
				<ellipse fill="#8F5151" cx="477.4" cy="1109.3" rx="54.6" ry="37.8"/>
				<path fill="#A66464" d="M463.1,1079c16.7-3.8,30.3,0.8,30.3,10.4s-13.6,20.5-30.3,24.3c-16.7,3.8-30.3-0.8-30.3-10.4
					S446.3,1082.9,463.1,1079z"/>
			</g>
			<g>
				<ellipse fill="#5E2D2D" cx="171.4" cy="1106.9" rx="51.1" ry="35.3"/>
				<ellipse fill="#8F5151" cx="168.1" cy="1102.1" rx="45.5" ry="31.5"/>
				<path fill="#A66464" d="M156.1,1076.8c13.9-3.2,25.2,0.7,25.2,8.7s-11.3,17.1-25.2,20.2c-13.9,3.2-25.2-0.7-25.2-8.7
					C130.9,1089.1,142.2,1080,156.1,1076.8z"/>
			</g>
			<g>
				<ellipse fill="#5E2D2D" cx="81.9" cy="1168.8" rx="38.3" ry="26.5"/>
				<ellipse fill="#8F5151" cx="79.4" cy="1165.2" rx="34.1" ry="23.6"/>
				<path fill="#A66464" d="M70.5,1146.3c10.5-2.4,18.9,0.5,18.9,6.5s-8.5,12.8-18.9,15.2c-10.5,2.4-18.9-0.5-18.9-6.5
					C51.5,1155.5,60,1148.7,70.5,1146.3z"/>
			</g>
			<g>
				<ellipse fill="#5E2D2D" cx="321.3" cy="1157.9" rx="38.3" ry="26.5"/>
				<ellipse fill="#8F5151" cx="318.8" cy="1154.3" rx="34.1" ry="23.6"/>
				<path fill="#A66464" d="M309.8,1135.3c10.5-2.4,18.9,0.5,18.9,6.5s-8.5,12.8-18.9,15.2s-18.9-0.5-18.9-6.5
					S299.4,1137.7,309.8,1135.3z"/>
			</g>
			<g>
				<ellipse fill="#5E2D2D" cx="606.4" cy="1097.8" rx="38.3" ry="26.5"/>
				<ellipse fill="#8F5151" cx="603.9" cy="1094.2" rx="34.1" ry="23.6"/>
				<path fill="#A66464" d="M594.9,1075.3c10.5-2.4,18.9,0.5,18.9,6.5s-8.5,12.8-18.9,15.2c-10.5,2.4-18.9-0.5-18.9-6.5
					C575.9,1084.5,584.4,1077.7,594.9,1075.3z"/>
			</g>
			<g>
				<ellipse fill="#5E2D2D" cx="1235.2" cy="1146" rx="61.4" ry="42.4"/>
				<ellipse fill="#8F5151" cx="1231.2" cy="1140.2" rx="54.6" ry="37.8"/>
				<path fill="#A66464" d="M1216.9,1109.9c16.7-3.8,30.3,0.8,30.3,10.4s-13.6,20.5-30.3,24.3c-16.7,3.8-30.3-0.8-30.3-10.4
					S1200.1,1113.7,1216.9,1109.9z"/>
			</g>
			<g>
				<ellipse fill="#5E2D2D" cx="914.7" cy="1107.7" rx="17.7" ry="12.3"/>
				<ellipse fill="#8F5151" cx="913.5" cy="1106.1" rx="15.8" ry="10.9"/>
				<path fill="#A66464" d="M909.4,1097.3c4.8-1.1,8.7,0.2,8.7,3s-3.9,5.9-8.7,7s-8.7-0.2-8.7-3S904.6,1098.4,909.4,1097.3z"/>
			</g>
			<g>
				<ellipse fill="#5E2D2D" cx="1053.8" cy="1082.9" rx="17.7" ry="12.3"/>
				<ellipse fill="#8F5151" cx="1052.6" cy="1081.3" rx="15.8" ry="10.9"/>
				<path fill="#A66464" d="M1048.4,1072.5c4.8-1.1,8.7,0.2,8.7,3s-3.9,5.9-8.7,7s-8.7-0.2-8.7-3
					C1039.7,1076.8,1043.6,1073.6,1048.4,1072.5z"/>
			</g>
			<g>
				<ellipse fill="#5E2D2D" cx="1142.1" cy="1163.2" rx="17.7" ry="12.3"/>
				<ellipse fill="#8F5151" cx="1140.9" cy="1161.6" rx="15.8" ry="10.9"/>
				<path fill="#A66464" d="M1136.8,1152.8c4.8-1.1,8.7,0.2,8.7,3s-3.9,5.9-8.7,7c-4.8,1.1-8.7-0.2-8.7-3S1132,1153.9,1136.8,1152.8
					z"/>
			</g>
			<g>
				<ellipse fill="#5E2D2D" cx="1326.2" cy="1090.5" rx="17.7" ry="12.3"/>
				<ellipse fill="#8F5151" cx="1325" cy="1088.8" rx="15.8" ry="10.9"/>
				<path fill="#A66464" d="M1320.9,1080.1c4.8-1.1,8.7,0.2,8.7,3s-3.9,5.9-8.7,7c-4.8,1.1-8.7-0.2-8.7-3
					C1312.1,1084.3,1316.1,1081.2,1320.9,1080.1z"/>
			</g>
			<g>
				<ellipse fill="#5E2D2D" cx="1558.6" cy="1179.9" rx="17.7" ry="12.3"/>
				<ellipse fill="#8F5151" cx="1557.5" cy="1178.3" rx="15.8" ry="10.9"/>
				<path fill="#A66464" d="M1553.3,1169.5c4.8-1.1,8.7,0.2,8.7,3s-3.9,5.9-8.7,7c-4.8,1.1-8.7-0.2-8.7-3
					S1548.5,1170.6,1553.3,1169.5z"/>
			</g>
			<g>
				<ellipse fill="#5E2D2D" cx="1398.8" cy="1108.2" rx="20.7" ry="14.3"/>
				<ellipse fill="#8F5151" cx="1397.4" cy="1106.3" rx="18.5" ry="12.8"/>
				<path fill="#A66464" d="M1392.6,1096c5.7-1.3,10.2,0.3,10.2,3.5s-4.6,6.9-10.2,8.2s-10.2-0.3-10.2-3.5
					S1386.9,1097.3,1392.6,1096z"/>
			</g>
			<g>
				<ellipse fill="#5E2D2D" cx="1416.5" cy="1170.5" rx="35.4" ry="24.5"/>
				<ellipse fill="#8F5151" cx="1414.2" cy="1167.2" rx="31.5" ry="21.8"/>
				<path fill="#A66464" d="M1405.9,1149.7c9.7-2.2,17.5,0.5,17.5,6s-7.8,11.8-17.5,14s-17.5-0.5-17.5-6
					S1396.2,1151.9,1405.9,1149.7z"/>
			</g>
			<g>
				<ellipse fill="#5E2D2D" cx="640.6" cy="1141.2" rx="17.7" ry="12.3"/>
				<ellipse fill="#8F5151" cx="639.5" cy="1139.5" rx="15.8" ry="10.9"/>
				<path fill="#A66464" d="M635.3,1130.8c4.8-1.1,8.7,0.2,8.7,3s-3.9,5.9-8.7,7s-8.7-0.2-8.7-3S630.5,1131.9,635.3,1130.8z"/>
			</g>
			<g>
				<ellipse fill="#5E2D2D" cx="724.8" cy="1172.1" rx="17.7" ry="12.3"/>
				<ellipse fill="#8F5151" cx="723.6" cy="1170.5" rx="15.8" ry="10.9"/>
				<path fill="#A66464" d="M719.5,1161.7c4.8-1.1,8.7,0.2,8.7,3s-3.9,5.9-8.7,7s-8.7-0.2-8.7-3S714.6,1162.8,719.5,1161.7z"/>
			</g>
			<g>
				<ellipse fill="#5E2D2D" cx="420.1" cy="1170.1" rx="17.7" ry="12.3"/>
				<ellipse fill="#8F5151" cx="418.9" cy="1168.4" rx="15.8" ry="10.9"/>
				<path fill="#A66464" d="M414.8,1159.7c4.8-1.1,8.7,0.2,8.7,3s-3.9,5.9-8.7,7c-4.8,1.1-8.7-0.2-8.7-3S409.9,1160.8,414.8,1159.7z
					"/>
			</g>
			<g>
				<ellipse fill="#5E2D2D" cx="265.2" cy="1097.6" rx="17.7" ry="12.3"/>
				<ellipse fill="#8F5151" cx="264.1" cy="1096" rx="15.8" ry="10.9"/>
				<path fill="#A66464" d="M259.9,1087.2c4.8-1.1,8.7,0.2,8.7,3s-3.9,5.9-8.7,7c-4.8,1.1-8.7-0.2-8.7-3S255.1,1088.3,259.9,1087.2z
					"/>
			</g>
		</g>
		<g>
			<g>
				<g>
					<path fill="#FEFFFF" d="M149.8,259.9h405.1l-56.1-11.1l-5.6-11.1c-7.4-14.7-21.1-25.2-37.2-28.5s-32.8,1.1-45.3,11.8l-5.6-10.2
						c-13.3-24.3-40-38-67.5-34.5s-50,23.4-56.7,50.3l-4.2-3.3c-10-7.7-23.3-9.6-35-4.8s-19.9,15.5-21.6,28L149.8,259.9z"/>
					<path fill="#FEFFFF" d="M711.4,267.2h249.4l-34.5-6.9l-3.4-6.8c-4.5-9.1-13-15.5-22.9-17.5s-20.2,0.7-27.9,7.3l-3.4-6.3
						c-8.2-15-24.6-23.4-41.5-21.2s-30.8,14.4-34.9,30.9l-2.6-2c-6.1-4.8-14.4-5.9-21.5-2.9c-7.2,2.9-12.3,9.5-13.3,17.2
						L711.4,267.2L711.4,267.2z"/>
					<path fill="#FEFFFF" d="M1207.9,118.8h298l-41.3-9.8l-4.1-9.8c-5.4-12.9-15.5-22.2-27.4-25c-11.9-2.9-24.2,1-33.3,10.4l-4.1-9
						c-9.7-21.4-29.5-33.4-49.6-30.3c-20.2,3.1-36.8,20.6-41.7,44.2l-3.1-2.9c-7.3-6.8-17.1-8.4-25.7-4.2
						c-8.6,4.2-14.6,13.6-15.9,24.6L1207.9,118.8z"/>
					<path fill="#FEFFFF" d="M433,458.1h308.8l-42.7-8.5l-4.2-8.5c-5.6-11.2-16.1-19.2-28.3-21.7c-12.3-2.5-25,0.8-34.5,9l-4.2-7.8
						c-10.1-18.5-30.5-29-51.4-26.3s-38.1,17.9-43.2,38.3l-3.2-2.5c-7.6-5.9-17.8-7.3-26.7-3.7c-8.9,3.7-15.2,11.8-16.4,21.3
						L433,458.1z"/>
					<path fill="#FEFFFF" d="M1017.2,44.8c49.5,0,89.7,40.2,89.7,89.7s-40.1,89.7-89.7,89.7c-49.5,0-89.7-40.1-89.7-89.7
						S967.7,44.8,1017.2,44.8z"/>
				</g>
				<path fill="#D9FBFF" d="M712.1,382.3h189.8l-26.3-5.2l-2.6-5.2c-3.4-6.9-9.9-11.8-17.4-13.3c-7.6-1.5-15.4,0.5-21.2,5.5
					l-2.6-4.8c-6.2-11.4-18.8-17.8-31.6-16.2s-23.4,11-26.6,23.6l-2-1.5c-4.7-3.6-10.9-4.5-16.4-2.2s-9.3,7.2-10.1,13.1L712.1,382.3
					L712.1,382.3z"/>
				<path fill="#D9FBFF" d="M971.7,560.4h171.1l-23.7-4.7l-2.4-4.7c-3.1-6.2-8.9-10.6-15.7-12c-6.8-1.4-13.9,0.5-19.1,5l-2.4-4.3
					c-5.6-10.3-16.9-16.1-28.5-14.6s-21.1,9.9-24,21.2l-1.8-1.4c-4.2-3.3-9.8-4-14.8-2c-4.9,2-8.4,6.5-9.1,11.8L971.7,560.4
					L971.7,560.4z"/>
				<path fill="#D9FBFF" d="M93.9,347.5H265l-23.7-4.7l-2.3-4.7c-3.1-6.2-8.9-10.7-15.7-12c-6.8-1.4-13.9,0.5-19.1,5l-2.4-4.3
					c-5.6-10.3-16.9-16.1-28.5-14.6s-21.1,9.9-24,21.2l-1.8-1.4c-4.2-3.3-9.9-4.1-14.8-2c-4.9,2-8.4,6.5-9.1,11.8L93.9,347.5
					L93.9,347.5z"/>
				<path fill="#D9FBFF" d="M1446.9,567.7h129.5l-17.9-3.6l-1.8-3.6c-2.4-4.7-6.7-8.1-11.9-9.1c-5.2-1-10.5,0.4-14.5,3.8l-1.8-3.3
					c-4.2-7.8-12.8-12.1-21.6-11c-8.8,1.1-16,7.5-18.1,16.1l-1.3-1c-3.2-2.5-7.5-3.1-11.2-1.5c-3.7,1.5-6.4,4.9-6.9,8.9
					L1446.9,567.7L1446.9,567.7z"/>
			</g>
			<g>
				<polygon fill="#FFFFFF" points="652.4,197.8 678.9,217.6 713.1,184.8 678.2,202.6 				"/>
				<polygon fill="#FFFFFF" points="682.8,147.5 709.3,167.2 743.4,134.4 708.5,152.3 				"/>
				<polygon fill="#FFFFFF" points="605.5,180.3 632,200.1 666.1,167.2 631.2,185.1 				"/>
			</g>
			<g>
				<polygon fill="#FFFFFF" points="1009.4,638.4 1025.4,650.3 1046.1,630.5 1025,641.3 				"/>
				<polygon fill="#FFFFFF" points="1027.7,607.9 1043.8,619.9 1064.5,600 1043.3,610.8 				"/>
				<polygon fill="#FFFFFF" points="980.9,627.7 997,639.7 1017.6,619.9 996.5,630.7 				"/>
			</g>
		</g>
		<g>
			<path fill="#347511" d="M201,533.1c21.2,0,40.2,7.3,52.4,18.7c12.9-6.8,29.4-10.9,47.3-10.9c41.6,0,75.3,21.9,75.3,49
				s-33.7,49-75.3,49c-23.6,0-44.7-7.1-58.5-18.2c-11.4,6.6-25.7,10.5-41.2,10.5c-36.9,0-66.7-21.9-66.7-49
				C134.3,555,164.1,533.1,201,533.1z"/>
			<path fill="#FFFFFF" d="M176.7,567.2c-11.5,18.6-37.2,31.6-67,31.9c-40.6,0.3-73.5-23.2-73.5-52.5c0-22.5,19.3-41.9,46.6-49.9
				c-2.5-6.8-3.9-14-3.9-21.5c0-39.4,37.4-71.7,83.5-72c32.1-0.3,60,15,74,37.6c13.1-7.1,29.3-11.3,46.8-11.5
				c43.8-0.4,79.4,25.1,79.4,56.9c0,4-0.6,7.9-1.6,11.7c22,1.2,41,11.2,51.6,25.7c8.6-4.6,19.2-7.4,30.7-7.5
				c28.5-0.2,51.6,16.1,51.6,36.5s-23.1,37.1-51.6,37.4c-12.9,0.1-24.8-3.2-33.8-8.7c-11.9,13.7-31.4,22.7-53.6,22.9
				c-25.2,0.2-47.1-11.1-58.1-27.9c-14.4,13.3-34.1,21.6-56,21.8C214.9,598.2,191.1,586,176.7,567.2L176.7,567.2z"/>
			<path fill="#401919" d="M284.8,1048.6c-39.7-15.9-69.6-62.7-74.1-108.5c-7.3-74.6-4.3-156.5,9.9-233.5
				c8.4-14.1,20.3-25.8,34.5-33.9c35.2-20.1,60.9-53.5,71.2-92.7l-5.2-7.8c-16.2,47.5-34.6,65.9-75.8,88.3c-3,1.6-6.6,1.3-9.2-0.8
				c-2.6-2-3.8-5.4-3.1-8.6c9.7-36.4,22.2-70.7,37.6-101.7l-20.3-8.6c-21.5,40.1-37.1,81.2-48.4,123.5l0,0
				c-1.7,1.8-12.9,1.7-14.3-6.2c-8.6-46.1-21.5-76.8-46.9-103.9l-2.9,11.9c33.3,34.4,44.8,100.4,49.7,165.3l0,0
				c-11,65.8-14.3,134.4-15.4,206.4c-0.8,47.1,0.9,72.3-37.9,110.9L284.8,1048.6L284.8,1048.6z"/>
			<path fill="#A9D90D" d="M181,570c-11.2,17.7-36.3,30-65.4,30c-39.6,0-71.7-22.8-71.7-50.9c0-21.5,18.8-39.9,45.4-47.4
				c-2.5-6.5-3.8-13.4-3.8-20.6c0-37.7,36.5-68.3,81.5-68.3c31.4,0,58.6,14.8,72.2,36.6c12.8-6.7,28.6-10.6,45.7-10.6
				c42.8,0,77.5,24.7,77.5,55.1c0,3.8-0.6,7.5-1.6,11.1c21.5,1.3,40,11,50.3,25c8.4-4.4,18.8-6.9,30-6.9c27.8,0,50.4,15.8,50.4,35.4
				c0,19.5-22.6,35.4-50.4,35.4c-12.6,0-24.2-3.3-33-8.6c-11.6,13-30.7,21.5-52.3,21.5c-24.6,0-46-11-56.7-27.2
				c-14,12.6-33.3,20.4-54.7,20.4C218.3,600,195.1,588.1,181,570L181,570z"/>
			<path fill="#84AB02" d="M181,570c-11.2,17.7-36.3,30-65.4,30c-39.6,0-71.7-22.8-71.7-50.9c0-16.4,11-31.1,28.1-40.4
				c-18.6,42.3,78.6,23,106.1,1.1c-4.7,47.9,118.3,50.6,122.4,21.2c0.3,43.1,95,61.1,103.6,26.7c28.9,16.6,87.5,2.6,68.5-26.8
				c11.5,6.5,18.9,16.4,18.9,27.6c0,19.5-22.6,35.4-50.4,35.4c-12.6,0-24.2-3.3-33-8.6c-11.6,13-30.7,21.5-52.3,21.5
				c-24.6,0-46-11-56.7-27.2c-14,12.6-33.3,20.4-54.7,20.4C218.3,600,195.1,588.1,181,570L181,570z"/>
			<path fill="#C0EB34" d="M174,431.8c26.8,0,48.4,11.9,48.4,26.7c0,14.7-21.7,26.7-48.4,26.7s-48.4-11.9-48.4-26.7
				C125.6,443.7,147.3,431.8,174,431.8z M364.6,533.1c8.5,0,15.4,4,15.4,8.9s-6.9,8.9-15.4,8.9s-15.4-4-15.4-8.9
				S356.1,533.1,364.6,533.1z M305.9,449.6c18.1,0,32.7,9.3,32.7,20.9c0,11.5-14.6,20.9-32.7,20.9c-0.5,0-1,0-1.4,0l0,0
				c0,9.6-11.1,17.4-24.7,17.4s-24.7-7.8-24.7-17.4c0-8.1,8-15,18.7-16.9c-0.4-1.3-0.6-2.7-0.6-4
				C273.2,458.9,287.9,449.6,305.9,449.6L305.9,449.6z"/>
		</g>
		<g>
			<path fill="#347511" d="M1370.3,403.9c-26.6,0-50.2,9.1-65.5,23.3c-16.2-8.5-36.8-13.6-59.2-13.6c-52,0-94.1,27.4-94.1,61.3
				s42.1,61.3,94.1,61.3c29.6,0,55.9-8.9,73.2-22.8c14.2,8.2,32.1,13.1,51.5,13.1c46.1,0,83.5-27.5,83.5-61.3
				C1453.7,431.3,1416.4,403.9,1370.3,403.9L1370.3,403.9z"/>
			<path fill="#FFFFFF" d="M1400.7,446.5c14.4,23.2,46.5,39.6,83.8,39.9c50.7,0.4,91.9-29,91.9-65.7c0-28.1-24.1-52.4-58.2-62.4
				c3.1-8.5,4.8-17.5,4.8-26.9c0-49.3-46.7-89.6-104.4-90.1c-40.2-0.3-75,18.8-92.5,47c-16.4-8.9-36.6-14.2-58.5-14.4
				c-54.8-0.5-99.3,31.4-99.3,71.2c0,5,0.7,9.9,2,14.6c-27.5,1.5-51.3,14-64.5,32.2c-10.7-5.8-24-9.3-38.4-9.4
				c-35.7-0.3-64.5,20.1-64.5,45.7c0,25.5,28.9,46.4,64.5,46.7c16.2,0.1,31-4,42.3-10.9c14.9,17.1,39.3,28.4,67,28.6
				c31.5,0.3,58.9-13.9,72.6-34.9c17.9,16.7,42.7,27.1,70,27.3C1352.9,485.3,1382.7,470,1400.7,446.5L1400.7,446.5z"/>
			<path fill="#401919" d="M1265.5,1048.6c49.6-19.9,87-78.4,92.7-135.7c9.1-93.3,5.4-195.8-12.4-292
				c-10.5-17.6-25.3-32.3-43.2-42.4c-44-25.2-76.1-66.9-89.1-116l6.5-9.8c20.3,59.4,43.3,82.5,94.8,110.4c3.7,2,8.2,1.6,11.5-0.9
				s4.8-6.8,3.8-10.8c-12.2-45.5-27.8-88.5-47.1-127.1l25.4-10.8c26.9,50.1,46.4,101.5,60.5,154.5l0,0c2.1,2.3,16.1,2.1,17.9-7.8
				c10.7-57.7,26.9-96.1,58.6-130l3.6,14.8c-41.6,43-56,125.5-62.1,206.8l0,0c13.8,82.2,17.9,168.1,19.3,258.1
				c1,58.9-1.1,90.5,47.4,138.6L1265.5,1048.6L1265.5,1048.6z"/>
			<path fill="#A9D90D" d="M1395.2,450.1c14.1,22.1,45.4,37.5,81.8,37.5c49.5,0,89.7-28.5,89.7-63.7c0-26.9-23.6-49.9-56.8-59.3
				c3.1-8.1,4.7-16.8,4.7-25.8c0-47.2-45.6-85.4-101.9-85.4c-39.2,0-73.2,18.6-90.3,45.8c-16-8.3-35.8-13.3-57.1-13.3
				c-53.5,0-96.9,30.9-96.9,69c0,4.8,0.7,9.4,2,13.9c-26.9,1.6-50,13.8-63,31.3c-10.5-5.5-23.5-8.7-37.5-8.7
				c-34.8,0-63,19.8-63,44.2s28.2,44.2,63,44.2c15.8,0,30.2-4.1,41.3-10.8c14.5,16.3,38.4,26.9,65.4,26.9c30.8,0,57.5-13.8,70.9-34
				c17.5,15.8,41.7,25.6,68.3,25.6C1348.7,487.6,1377.7,472.7,1395.2,450.1L1395.2,450.1z"/>
			<path fill="#84AB02" d="M1395.2,450.1c14.1,22.1,45.4,37.5,81.8,37.5c49.5,0,89.7-28.5,89.7-63.7c0-20.6-13.8-38.9-35.1-50.5
				c23.3,52.9-98.3,28.7-132.7,1.4c5.9,60-147.9,63.3-153.1,26.5c-0.3,54-118.9,76.5-129.6,33.4c-36.1,20.8-109.4,3.3-85.7-33.5
				c-14.4,8.1-23.6,20.6-23.6,34.5c0,24.4,28.2,44.2,63,44.2c15.8,0,30.2-4.1,41.3-10.8c14.5,16.3,38.4,26.9,65.4,26.9
				c30.8,0,57.5-13.8,70.9-34c17.5,15.8,41.7,25.6,68.3,25.6C1348.7,487.6,1377.7,472.7,1395.2,450.1L1395.2,450.1z"/>
			<path fill="#C0EB34" d="M1404,277.2c-33.5,0-60.6,15-60.6,33.4s27.1,33.4,60.6,33.4s60.6-14.9,60.6-33.4S1437.5,277.2,1404,277.2
				L1404,277.2z M1165.6,403.9c-10.6,0-19.2,5-19.2,11.1s8.6,11.1,19.2,11.1s19.2-5,19.2-11.1
				C1184.8,408.8,1176.2,403.9,1165.6,403.9z M1239.1,299.4c-22.6,0-40.9,11.7-40.9,26.1s18.3,26.1,40.9,26.1c0.6,0,1.2,0,1.8,0l0,0
				c0,12,13.8,21.7,30.9,21.7c17,0,30.9-9.7,30.9-21.7c0-10.2-10-18.7-23.4-21.1c0.5-1.6,0.8-3.3,0.8-5
				C1279.9,311.1,1261.6,299.4,1239.1,299.4L1239.1,299.4z"/>
		</g>
	</g>
</g>
<g>
	<path fill="#FFFFFF" d="M1046.8,1040c-21.1-112.7-33.5-209.8-26.6-325.9H524.9c6.9,116.1-5.5,213.2-26.6,325.9H1046.8z"/>
	<path fill="#F5E9E9" d="M620.7,1040h141.6c20.8-33.6,33.9-78.8,33.9-119.1c0-76.6-46.9-107.1-104.7-107.1
		c-57.9,0-104.8,30.6-104.8,107.1C586.8,961.2,599.9,1006.4,620.7,1040z"/>
	<path fill="#CC6633" d="M647.8,1040h87.5c22.5-27.7,37.3-73.4,37.3-113.4c0-62.5-36.2-87.4-81-87.4c-44.8,0-81,24.9-81,87.4
		C610.5,966.6,625.4,1012.3,647.8,1040L647.8,1040z"/>
	<path fill="#F5E9E9" d="M1019.7,833.8c-2-38.5-2-77.9,0.4-119.7H524.9c1.1,18.3,1.7,36.1,1.9,53.6l222.1,9.7
		C842.1,780.6,933.7,799.8,1019.7,833.8L1019.7,833.8z"/>
	<path fill="#CC6633" d="M518.1,495.5l-8.4,51.5c-9.3,57.6-26.2,113.8-50.2,167.1l25.5,8.3c92.7,30.3,189.9,44.6,287.5,42.3
		c97.5,2.3,194.8-12,287.6-42.2l25.5-8.3c-23.9-53.3-40.8-109.4-50.2-167.1l-8.4-51.5L518.1,495.5L518.1,495.5z"/>
	<rect x="691.9" y="464.6" fill="#993E11" width="62" height="47.9"/>
	<rect x="681.6" y="417.1" fill="#CC6633" width="82.5" height="52.1"/>
	<path fill="#E37944" d="M516.9,459.6c35.8,7.6,71.9,13.3,108,17.1c36,3.8,72.5,5.7,109.3,5.7h76.3c36.8,0,73.4-1.9,109.3-5.7
		c36.1-3.8,72.2-9.5,108-17.1l7.2,34.2c-36.8,7.8-74.2,13.7-111.8,17.6c-37.8,3.9-75.4,5.9-112.9,5.9h-76.3
		c-37.5,0-75.2-2-112.9-5.9c-37.6-3.9-74.9-9.8-111.7-17.6L516.9,459.6L516.9,459.6z"/>
	<path fill="#F59565" d="M516.9,459.6c35.8,7.6,71.9,13.3,108,17.1c36,3.8,72.5,5.7,109.3,5.7h76.3c36.8,0,73.4-1.9,109.3-5.7
		c6.3-0.7,12.7-1.4,19-2.1c-132.6,36-288.5,39.3-426.9,8L516.9,459.6z"/>
	<path fill="#993E11" d="M539.6,510.3c0,76.2-2.5,129.9-46.6,198.5C522.8,640.1,531.7,582.6,539.6,510.3z M1005.4,510.3
		c0,76.2,2.5,129.9,46.6,198.5C1022.3,640.1,1013.4,582.6,1005.4,510.3z M924.7,608.2c-21,13.1-39.7,16.4-62.5,5.4
		C884.3,615,903.2,612.8,924.7,608.2z M930.8,657.6c-21.1,13.9-40.2,17.6-63.8,7C889.7,665.5,909,662.8,930.8,657.6z M1006.4,597.5
		c-20,14.5-38.4,18.9-62,9.6C966.5,607,985.3,603.5,1006.4,597.5z M1016.1,646.5c-20.1,15.3-38.8,20.2-63.2,11.1
		C975.6,657,994.7,653.1,1016.1,646.5z M845.3,614.9c-22.1,11.4-41,13-62.8,0.2C804.5,618.3,823.5,617.7,845.3,614.9z M848.6,667.2
		c-22.3,12.1-41.6,14.3-64.2,1.6C806.9,671.6,826.4,670.6,848.6,667.2z M842.1,562.6c-21.9,10.7-40.3,11.8-61.4-1.2
		C802,565,820.7,564.8,842.1,562.6z M920.8,558.7c-20.8,12.4-39.2,15.1-61.2,3.9C881.1,564.4,899.7,562.7,920.8,558.7z M998.9,548.6
		c-19.9,13.8-38,17.7-60.8,8C959.7,556.9,978.2,553.9,998.9,548.6z M1027.9,695.5c-20.2,16.1-39.2,21.6-64.3,12.8
		C986.7,707.1,1006.1,702.7,1027.9,695.5z M939.2,707.1c-21.3,14.7-40.7,18.9-65.1,8.5C897.3,716,917,712.9,939.2,707.1z
		 M851.9,719.6c-22.5,12.9-42.1,15.5-65.6,3.1C809.3,725,829.2,723.4,851.9,719.6z M927.8,523.6c-0.9,75.7-0.5,134.5,31.1,206.2
		C942.5,658.3,934.2,596.1,927.8,523.6z M850.1,529.4c-1.8,75.2-3.4,139,15.6,213.9C862.8,669,854.9,602.3,850.1,529.4z
		 M620.3,608.2c21,13.1,39.7,16.4,62.5,5.4C660.7,615,641.9,612.8,620.3,608.2z M614.2,657.6c21.1,13.9,40.2,17.6,63.8,7
		C655.4,665.5,636,662.8,614.2,657.6z M538.7,597.5c20,14.5,38.4,18.9,62,9.6C578.5,607,559.7,603.5,538.7,597.5L538.7,597.5z
		 M529,646.5c20.1,15.3,38.8,20.2,63.1,11.1C569.5,657,550.4,653.1,529,646.5z M699.7,614.9c22.1,11.4,41,13,62.8,0.2
		C740.6,618.3,721.5,617.7,699.7,614.9z M696.5,667.2c22.3,12.1,41.6,14.3,64.2,1.6C738.2,671.6,718.7,670.6,696.5,667.2
		L696.5,667.2z M703,562.6c21.9,10.7,40.3,11.8,61.4-1.2C743,565,724.3,564.8,703,562.6z M624.2,558.7c20.8,12.4,39.2,15.1,61.2,3.9
		C663.9,564.4,645.3,562.7,624.2,558.7z M546.1,548.6c19.9,13.8,38,17.7,60.8,8C585.3,556.9,566.9,553.9,546.1,548.6z M517.2,695.5
		c20.2,16.1,39.2,21.6,64.3,12.8C558.3,707.1,539,702.7,517.2,695.5z M605.9,707.1c21.3,14.7,40.7,18.9,65.1,8.5
		C647.8,716,628.1,712.9,605.9,707.1z M693.2,719.6c22.5,12.9,42.1,15.5,65.6,3.1C735.7,725,715.9,723.4,693.2,719.6z M617.3,523.6
		c0.9,75.7,0.5,134.5-31.1,206.2C602.5,658.3,610.9,596.1,617.3,523.6z M694.9,529.4c1.8,75.2,3.4,139-15.6,213.9
		C682.3,669,690.1,602.3,694.9,529.4z M772.5,527.7c2.8,74.8,6.3,143.6,0,221.7C762,672.3,769.4,600.9,772.5,527.7z"/>
	<path fill="#B34A16" d="M647.8,1040h87.5c22.5-27.7,37.3-73.4,37.3-113.4c0-62.5-36.2-87.4-81-87.4c-44.8,0-81,24.9-81,87.4
		C610.5,966.6,625.4,1012.3,647.8,1040L647.8,1040z"/>
	<path fill="#FFB700" d="M611.1,912.8c-0.3,3.4-0.6,7-0.7,10.8h13c1.6,2.2,4.3,3.6,7.2,3.6c5,0,9-4,9-9c0-5-4-9-9-9
		c-3,0-5.6,1.4-7.2,3.6L611.1,912.8L611.1,912.8z M617.3,976.7c1,3.6,2,7.2,3.2,10.8h3c1.6,2.2,4.3,3.6,7.2,3.6c5,0,9-4,9-9
		c0-5-4-9-9-9c-3,0-5.6,1.4-7.2,3.6L617.3,976.7L617.3,976.7z"/>
	<path fill="#CC6633" d="M659.6,1040h75.7c22.5-27.7,37.3-73.4,37.3-113.4c0-16.1-2.4-29.6-6.7-40.9c-12-6-25.9-8.7-40.7-8.7
		c-44.8,0-81,24.9-81,87.4C644.1,989.3,649.8,1016.4,659.6,1040L659.6,1040z"/>
	<path fill="#F5E9E9" d="M845.4,835.2c21.7-0.9,44.3-1.4,67.3-1.4c23,0,45.6,0.5,67.3,1.4c1.9,21.8,2.9,44.9,2.9,68.8
		c0,23.9-1,47-2.9,68.8c-21.7,0.9-44.3,1.4-67.3,1.4c-23,0-45.6-0.5-67.3-1.4c-1.9-21.8-2.9-44.9-2.9-68.8
		C842.5,880.1,843.5,857,845.4,835.2z"/>
	<path fill="#401919" d="M906.6,854.7c0.5,6.1,0.7,12.4,0.7,18.5c0,6.2-0.2,12.4-0.7,18.5l-0.5,6.1l-6.1,0.2
		c-6,0.2-11.9,0.4-17.9,0.4s-11.9-0.2-17.9-0.4l-6.1-0.2l-0.5-6.1c-0.5-6.1-0.8-12.4-0.8-18.5c0-6.2,0.2-12.4,0.8-18.5l0.5-6.1
		l6.1-0.2c6-0.2,11.9-0.4,17.9-0.4s11.9,0.2,17.9,0.4l6.1,0.2L906.6,854.7z M906.6,916.1c0.5,6.1,0.7,12.4,0.7,18.5
		c0,6.2-0.2,12.4-0.7,18.5l-0.5,6.1l-6.1,0.2c-6,0.2-11.9,0.4-17.9,0.4s-11.9-0.2-17.9-0.4l-6.1-0.2l-0.5-6.1
		c-0.5-6.1-0.8-12.4-0.8-18.5c0-6.1,0.2-12.4,0.8-18.5l0.5-6.1l6.1-0.2c6-0.2,11.9-0.4,17.9-0.4s11.9,0.2,17.9,0.4l6.1,0.2
		L906.6,916.1z M967.9,854.7c0.5,6.1,0.8,12.4,0.8,18.5c0,6.2-0.2,12.4-0.8,18.5l-0.5,6.1l-6.1,0.2c-6,0.2-11.9,0.4-17.9,0.4
		c-6,0-11.9-0.2-17.9-0.4l-6.1-0.2l-0.5-6.1c-0.5-6.1-0.7-12.4-0.7-18.5c0-6.2,0.2-12.4,0.7-18.5l0.5-6.1l6.1-0.2
		c6-0.2,11.9-0.4,17.9-0.4c6,0,11.9,0.2,17.9,0.4l6.1,0.2L967.9,854.7z M967.9,916.1c0.5,6.1,0.8,12.4,0.8,18.5
		c0,6.2-0.2,12.4-0.8,18.5l-0.5,6.1l-6.1,0.2c-6,0.2-11.9,0.4-17.9,0.4c-6,0-11.9-0.2-17.9-0.4l-6.1-0.2l-0.5-6.1
		c-0.5-6.1-0.7-12.4-0.7-18.5c0-6.1,0.2-12.4,0.7-18.5l0.5-6.1l6.1-0.2c6-0.2,11.9-0.4,17.9-0.4c6,0,11.9,0.2,17.9,0.4l6.1,0.2
		L967.9,916.1z"/>
	<path fill="#663333" d="M903.3,898l-3.4,0.2c-6,0.2-11.9,0.4-17.9,0.4c-5.1,0-10.2-0.1-15.2-0.2c-0.2-2.7-0.2-5.3-0.2-8
		c0-4.5,0.2-9,0.6-13.5l0.4-4.4l4.5-0.2c4.3-0.2,8.7-0.2,13-0.2c4.3,0,8.7,0.1,13,0.2l4.5,0.2l0.4,4.4c0.4,4.5,0.6,9,0.6,13.5
		C903.5,892.9,903.4,895.5,903.3,898L903.3,898z M902.9,921.4c0.4,4.5,0.6,9,0.6,13.5s-0.2,9-0.6,13.5l-0.4,4.4L898,953
		c-4.3,0.2-8.7,0.2-13,0.2c-4.3,0-8.7-0.1-13-0.2l-4.5-0.2l-0.4-4.4c-0.4-4.5-0.6-9-0.6-13.5s0.2-9,0.6-13.5l0.4-4.4l4.5-0.2
		c4.3-0.2,8.7-0.2,13-0.2c4.3,0,8.7,0.1,13,0.2l4.5,0.2L902.9,921.4z M947.5,876.8c0.4,4.5,0.6,9,0.6,13.5c0,2.8-0.1,5.6-0.2,8.3
		c-1.6,0-3,0-4.5,0c-6,0-11.9-0.2-17.9-0.4l-6.1-0.2l-0.5-6.1c-0.5-6.1-0.7-12.4-0.7-18.5V872c3.9-0.2,7.8-0.2,11.6-0.2
		c4.3,0,8.7,0.1,13,0.2l4.5,0.2L947.5,876.8L947.5,876.8z M947.5,921.4c0.4,4.5,0.6,9,0.6,13.5s-0.2,9-0.6,13.5l-0.4,4.4l-4.5,0.2
		c-4.3,0.2-8.7,0.2-13,0.2c-3.6,0-7.2-0.1-10.9-0.2c-0.5-6.1-0.7-12.3-0.7-18.5c0-6,0.2-12,0.7-18c3.6-0.2,7.3-0.2,10.9-0.2
		c4.3,0,8.7,0.1,13,0.2l4.5,0.2L947.5,921.4L947.5,921.4z"/>
	<path fill="#993E11" d="M691.5,1032.2l-1.6-20.1c-4.2-53.5-3.6-107.9,1.6-161.1c5.2,53.2,5.7,107.5,1.6,161.1L691.5,1032.2z
		 M724,1024.5c19-59.7,22-91.4,6.1-154.3C732.7,929,733.4,960.7,724,1024.5z M659,1024.5c-19-59.7-22-91.4-6.1-154.3
		C650.3,929,649.6,960.7,659,1024.5z"/>
	<circle fill="#FFB700" cx="739.2" cy="943.1" r="16.1"/>
	<circle fill="#FFE500" cx="739.2" cy="943.1" r="8.7"/>
	<path fill="#FFE500" d="M739.2,939.7c8.1,0,14.7,6.6,14.7,14.7s-6.6,14.7-14.7,14.7s-14.7-6.6-14.7-14.7
		C724.6,946.2,731.2,939.7,739.2,939.7z M739.2,944.3c5.6,0,10.1,4.5,10.1,10.1s-4.5,10.1-10.1,10.1s-10.1-4.5-10.1-10.1
		C729.2,948.8,733.7,944.3,739.2,944.3z"/>
	<path fill="#CC6633" d="M531.9,977.2L531.9,977.2c1.9-5,2.5-9.7,1.6-14.9c-0.3-2-0.2-4.3,0.7-6.3c2.5-6.5,9.7-9.7,16.1-7.3
		c0.4,0.2,0.7,0.3,1.1,0.5c4,2,7.9,2.9,12.3,3c1.9,0,3.9,0.4,5.7,1.1c8.8,3.4,13.2,13.1,9.8,21.9c-1.9,5-5.8,8.5-10.5,10.1
		c-4.8,1.6-8.5,3.9-12,7.6c-4,4.3-10.4,5.9-16.2,3.7C532.9,993.6,529,985,531.9,977.2L531.9,977.2z M1018.8,813.4
		c-0.6-17-0.7-34.2-0.5-51.8c-2.2-2-4.8-3.5-7.9-4.4c-10.7-3.1-21.8,3-24.9,13.6c-0.7,2.3-0.9,4.6-0.8,6.9c0.3,5.3-0.4,9.9-2.4,14.8
		c-0.2,0.4-0.3,0.9-0.5,1.3c-2.3,7.9,2.2,16.1,10,18.4c2.5,0.7,5.1,0.8,7.5,0.2c6.1-1.4,11.7-1.2,17.7,0.6c0.1,0,0.1,0,0.2,0.1
		C1017.9,813.2,1018.4,813.3,1018.8,813.4z M526.5,801.1c-0.3,15.7-1.1,31.2-2,46.6c6-0.1,11.2,1.1,16.7,3.9
		c5.8,2.9,12.8,3.1,19.1,0.2c11.1-5.2,15.9-18.4,10.7-29.6c-1.1-2.4-2.6-4.5-4.3-6.3c-4.2-4.2-6.9-8.5-8.9-14
		c-0.2-0.5-0.4-1-0.6-1.5c-3.9-8.2-13.6-11.7-21.8-8c-2.6,1.2-4.8,3.1-6.4,5.3C528.2,799,527.4,800.1,526.5,801.1L526.5,801.1z
		 M916.2,991.1C916.3,991.1,916.3,991.1,916.2,991.1c5.2,0.1,9.7-1.1,14.2-3.6c1.8-1,3.8-1.6,6-1.6c6.7,0,12.1,5.4,12.1,12.1
		c0,0.4,0,0.8-0.1,1.1c-0.4,4.3,0.1,8.1,1.6,12.2c0.7,1.7,1,3.6,1,5.6c0,9.1-7.4,16.5-16.5,16.5c-5.2,0-9.8-2.4-12.8-6.1
		c-3.1-3.8-6.6-6.4-11.1-8.3c-5.2-2.2-9-7.4-9-13.4C901.7,997.7,908.2,991.1,916.2,991.1L916.2,991.1z M802.2,836.1
		C802.2,836.1,802.2,836.1,802.2,836.1c-2-2.6-4.2-4.4-7.2-5.7c-1.1-0.5-2.2-1.3-3-2.4c-2.5-3.4-1.9-8.1,1.5-10.7
		c0.2-0.2,0.4-0.2,0.6-0.4c2.3-1.5,4-3.1,5.5-5.4c0.7-1,1.4-1.9,2.4-2.6c4.5-3.4,11-2.5,14.4,2c2,2.5,2.5,5.7,1.8,8.7
		s-0.7,5.7,0.1,8.6c0.9,3.4-0.2,7.3-3.3,9.6C811,840.9,805.2,840.1,802.2,836.1L802.2,836.1z"/>
</g>
</svg>
